<mxfile host="Electron" modified="2024-04-11T20:04:27.958Z" agent="Mozilla/5.0 (Windows NT 10.0; Win64; x64) AppleWebKit/537.36 (KHTML, like Gecko) draw.io/24.1.0 Chrome/120.0.6099.109 Electron/28.1.0 Safari/537.36" etag="KDEqZY3PAPI6vCxn2jKD" version="24.1.0" type="device">
  <diagram name="Page-1" id="13e1069c-82ec-6db2-03f1-153e76fe0fe0">
    <mxGraphModel dx="1434" dy="964" grid="1" gridSize="10" guides="1" tooltips="1" connect="1" arrows="1" fold="1" page="1" pageScale="1" pageWidth="1169" pageHeight="827" background="none" math="0" shadow="0">
      <root>
        <mxCell id="0" />
        <mxCell id="1" parent="0" />
        <mxCell id="1z-I9MC-CgZhmJ2wUnAJ-1" value="Herr Müller : Nutzer" style="rounded=0;whiteSpace=wrap;html=1;" vertex="1" parent="1">
          <mxGeometry x="50" y="20" width="210" height="70" as="geometry" />
        </mxCell>
        <mxCell id="1z-I9MC-CgZhmJ2wUnAJ-3" value="" style="shape=umlActor;verticalLabelPosition=bottom;verticalAlign=top;html=1;outlineConnect=0;" vertex="1" parent="1">
          <mxGeometry x="220" y="37.5" width="20" height="35" as="geometry" />
        </mxCell>
        <mxCell id="1z-I9MC-CgZhmJ2wUnAJ-7" value=": LoginSceen" style="rounded=0;whiteSpace=wrap;html=1;" vertex="1" parent="1">
          <mxGeometry x="300" y="20" width="200" height="70" as="geometry" />
        </mxCell>
        <mxCell id="1z-I9MC-CgZhmJ2wUnAJ-9" value=": AutorisierungsModule" style="rounded=0;whiteSpace=wrap;html=1;" vertex="1" parent="1">
          <mxGeometry x="770" y="20" width="190" height="70" as="geometry" />
        </mxCell>
        <mxCell id="1z-I9MC-CgZhmJ2wUnAJ-10" value=": RegistrierungsScreen" style="rounded=0;whiteSpace=wrap;html=1;" vertex="1" parent="1">
          <mxGeometry x="540" y="20" width="190" height="70" as="geometry" />
        </mxCell>
        <mxCell id="1z-I9MC-CgZhmJ2wUnAJ-12" value="" style="endArrow=none;dashed=1;html=1;dashPattern=1 3;strokeWidth=2;rounded=0;" edge="1" parent="1">
          <mxGeometry width="50" height="50" relative="1" as="geometry">
            <mxPoint x="150" y="770" as="sourcePoint" />
            <mxPoint x="150" y="90" as="targetPoint" />
          </mxGeometry>
        </mxCell>
        <mxCell id="1z-I9MC-CgZhmJ2wUnAJ-13" value="" style="endArrow=none;dashed=1;html=1;dashPattern=1 3;strokeWidth=2;rounded=0;" edge="1" parent="1">
          <mxGeometry width="50" height="50" relative="1" as="geometry">
            <mxPoint x="399.5" y="770" as="sourcePoint" />
            <mxPoint x="399.5" y="90" as="targetPoint" />
          </mxGeometry>
        </mxCell>
        <mxCell id="1z-I9MC-CgZhmJ2wUnAJ-14" value="" style="endArrow=none;dashed=1;html=1;dashPattern=1 3;strokeWidth=2;rounded=0;" edge="1" parent="1">
          <mxGeometry width="50" height="50" relative="1" as="geometry">
            <mxPoint x="634.5" y="770" as="sourcePoint" />
            <mxPoint x="634.5" y="90" as="targetPoint" />
          </mxGeometry>
        </mxCell>
        <mxCell id="1z-I9MC-CgZhmJ2wUnAJ-15" value="" style="endArrow=none;dashed=1;html=1;dashPattern=1 3;strokeWidth=2;rounded=0;" edge="1" parent="1">
          <mxGeometry width="50" height="50" relative="1" as="geometry">
            <mxPoint x="870" y="770" as="sourcePoint" />
            <mxPoint x="870" y="90" as="targetPoint" />
          </mxGeometry>
        </mxCell>
        <mxCell id="1z-I9MC-CgZhmJ2wUnAJ-19" value=": Datenbank" style="rounded=0;whiteSpace=wrap;html=1;" vertex="1" parent="1">
          <mxGeometry x="1000" y="20" width="150" height="70" as="geometry" />
        </mxCell>
        <mxCell id="1z-I9MC-CgZhmJ2wUnAJ-21" value="" style="endArrow=classic;html=1;rounded=0;" edge="1" parent="1">
          <mxGeometry width="50" height="50" relative="1" as="geometry">
            <mxPoint x="150" y="130" as="sourcePoint" />
            <mxPoint x="400" y="130" as="targetPoint" />
          </mxGeometry>
        </mxCell>
        <mxCell id="1z-I9MC-CgZhmJ2wUnAJ-22" value="öffneLoginScreen()" style="edgeLabel;html=1;align=center;verticalAlign=middle;resizable=0;points=[];" vertex="1" connectable="0" parent="1z-I9MC-CgZhmJ2wUnAJ-21">
          <mxGeometry x="-0.2" relative="1" as="geometry">
            <mxPoint as="offset" />
          </mxGeometry>
        </mxCell>
        <mxCell id="1z-I9MC-CgZhmJ2wUnAJ-23" value="" style="endArrow=classic;html=1;rounded=0;" edge="1" parent="1">
          <mxGeometry width="50" height="50" relative="1" as="geometry">
            <mxPoint x="400" y="160" as="sourcePoint" />
            <mxPoint x="630" y="160" as="targetPoint" />
          </mxGeometry>
        </mxCell>
        <mxCell id="1z-I9MC-CgZhmJ2wUnAJ-24" value="öffnetNeuRegistrieren()" style="edgeLabel;html=1;align=center;verticalAlign=middle;resizable=0;points=[];" vertex="1" connectable="0" parent="1z-I9MC-CgZhmJ2wUnAJ-23">
          <mxGeometry x="0.1391" y="4" relative="1" as="geometry">
            <mxPoint as="offset" />
          </mxGeometry>
        </mxCell>
      </root>
    </mxGraphModel>
  </diagram>
</mxfile>
